<?xml version="1.0" encoding="UTF-8"?>
<svg id="Layer_2" data-name="Layer 2" xmlns="http://www.w3.org/2000/svg" viewBox="0 0 203.73 221.37">
  <defs>
    <style>
      .cls-1 {
        fill: #5d7a72;
      }

      .cls-1, .cls-2, .cls-3, .cls-4, .cls-5, .cls-6, .cls-7, .cls-8, .cls-9, .cls-10, .cls-11 {
        stroke-width: 0px;
      }

      .cls-12 {
        opacity: .56;
        stroke: #fff;
        stroke-miterlimit: 10;
        stroke-width: .55px;
      }

      .cls-12, .cls-13 {
        fill: none;
      }

      .cls-2 {
        fill: #260b05;
      }

      .cls-3, .cls-6 {
        fill: #dc9f8e;
      }

      .cls-13 {
        stroke: #260b05;
        stroke-linecap: round;
        stroke-linejoin: round;
        stroke-width: .72px;
      }

      .cls-4 {
        fill: #e49745;
      }

      .cls-5 {
        fill: #fff;
      }

      .cls-6 {
        opacity: .21;
      }

      .cls-7 {
        fill: #ba684e;
      }

      .cls-8 {
        fill: #b4d2c4;
      }

      .cls-9, .cls-11 {
        fill: #8b4034;
      }

      .cls-10 {
        fill: #ffe9d9;
      }

      .cls-11 {
        opacity: .15;
      }
    </style>
  </defs>
  <g id="OBJECTS">
    <g>
      <path class="cls-5" d="m5.77,221.37c-3.19,0-5.77-2.58-5.77-5.77v-113.73C0,45.7,45.7,0,101.87,0c16.34,0,32.58,3.96,46.98,11.46,1.78.93,3.39,1.83,4.93,2.74,2.03,1.2,4.13,2.54,6.2,3.99,4.95,3.44,9.63,7.36,13.92,11.65,19.24,19.24,29.84,44.82,29.84,72.04v113.73c0,3.19-2.58,5.77-5.77,5.77H5.77Z"/>
      <g>
        <path class="cls-8" d="m198.45,101.88v113.73H55.96l-35.35-12.61-14.34-64.32v-36.8C6.26,48.8,49.28,5.77,102.36,5.77c15.98,0,31.06,3.9,44.32,10.81,1.57.82,3.12,1.67,4.63,2.58,2.01,1.18,3.96,2.44,5.87,3.77,2.56,1.78,5.03,3.68,7.39,5.7,1.99,1.68,1.08,7.97,2.92,9.81.91.91,6.89-.2,7.41.41,14.68,16.87,23.56,38.91,23.56,63.02Z"/>
        <g>
          <g>
            <path class="cls-1" d="m23.29,109.53c-.87-8.59-6.58-16.48-5.78-25.08.48-5.14,3.3-9.84,6.93-13.53,3.62-3.68,8.03-6.48,12.39-9.25,2.38,3.06,3.81,6.54,5.04,10.21,1.15,3.44,2.17,6.98,2.35,10.6.18,3.63-.53,7.39-2.58,10.39-.91,1.33-2.05,2.47-3.21,3.59-4.69,4.55-9.96,9.06-15.14,13.05Z"/>
            <g>
              <path class="cls-2" d="m23.28,109.73s-.02,0-.03,0c-.11-.02-.18-.12-.16-.23.07-.38,6.95-38.12,13.57-47.93.06-.09.18-.11.27-.05.09.06.11.18.05.27-6.57,9.74-13.44,47.4-13.51,47.78-.02.09-.1.16-.19.16Z"/>
              <path class="cls-2" d="m31.09,75.76c-.06,0-.12-.03-.16-.09l-4.4-6.95c-.06-.09-.03-.21.06-.27.09-.06.21-.03.27.06l4.32,6.82,10.64-3.63c.1-.03.21.02.25.12.03.1-.02.21-.12.25l-10.78,3.67s-.04.01-.07.01Z"/>
              <path class="cls-2" d="m28.07,87.11c-.05,0-.1-.02-.14-.06l-8.58-9.27c-.07-.08-.07-.2.01-.27.08-.07.2-.07.27.01l8.58,9.27c.07.08.07.2-.01.27-.04.04-.09.05-.14.05Z"/>
              <path class="cls-2" d="m26.71,93.3c-.08,0-.15-.05-.18-.13-.04-.1.01-.21.11-.25l17.36-6.53c.1-.04.21.01.25.11.04.1-.01.21-.11.25l-17.36,6.53s-.05.01-.07.01Z"/>
              <path class="cls-2" d="m25.22,99.95s-.09-.02-.13-.05l-6.5-5.88c-.08-.07-.09-.19-.01-.27.07-.08.19-.09.27-.01l6.43,5.81,12.4-2.66c.11-.03.21.04.23.15.02.1-.04.21-.15.23l-12.49,2.68s-.03,0-.04,0Z"/>
            </g>
          </g>
          <g>
            <path class="cls-1" d="m177.73,59.54c0,.15,0,.32,0,.47-.07,0-.14,0-.21,0-3.72.27-7.29-.39-10.9-1.34-.07-.02-.12-.03-.19-.05-.06-.02-.12-.03-.18-.05-3.45-.91-6.9-1.99-9.98-3.79-1.12-.65-2.18-1.41-3.16-2.27-.11-.1-.21-.19-.32-.29-1.63-1.49-2.96-3.26-3.8-5.3-.61-1.48-.94-3.07-1.25-4.64-.05-.25-.1-.49-.13-.74-.04-.14-.06-.29-.09-.43h0c-1.11-6-1.91-12.34-2.39-18.38,0-.09,0-.18-.02-.27.2.11.39.2.6.3h0c4.53,2.19,9.72,2.96,14.56,4.37h0c.2.05.4.11.61.17,1.27.38,2.51.81,3.7,1.32,1.99,1.68,3.9,3.45,5.74,5.29.91.91,1.8,1.84,2.67,2.79.11.11.21.22.32.34.54.6,1.08,1.19,1.6,1.81.84,1.83,1.45,3.76,1.88,5.72.21.98.38,1.97.51,2.96.02.12.04.26.05.38.49,3.84.46,7.74.4,11.62Z"/>
            <g>
              <path class="cls-2" d="m144.93,22.37s.01-.02.02-.02c.07-.08.2-.08.27,0,.28.27,28.1,26.69,32.68,37.6.04.1,0,.21-.1.25-.1.04-.21,0-.25-.1-4.55-10.84-32.31-37.2-32.59-37.47-.07-.07-.08-.17-.03-.25Z"/>
              <path class="cls-2" d="m169.08,47.49c.04-.05.1-.09.16-.08l8.23.13c.11,0,.19.09.19.2,0,.11-.09.19-.2.19l-8.07-.12-2.79,10.89c-.03.1-.13.17-.24.14-.1-.03-.17-.13-.14-.24l2.83-11.03s.01-.04.03-.06Z"/>
              <path class="cls-2" d="m172.98,36.71c.11.11.21.22.32.34l-11.6,1.96-.27.05c-.11.02-.2-.06-.22-.16,0-.05,0-.1.03-.13.03-.05.08-.08.12-.09h.03l11.59-1.96Z"/>
              <path class="cls-2" d="m156.79,34.22c.04-.06.12-.1.2-.08.1.02.17.13.15.23l-4.04,18.1c-.02.1-.13.17-.23.15-.1-.02-.17-.13-.15-.23l4.04-18.1s.02-.05.03-.07Z"/>
              <path class="cls-2" d="m152.05,29.34s.07-.07.11-.08l8.48-2.22c.1-.03.21.03.24.14.03.1-.03.21-.14.24l-8.38,2.2-4.56,11.83c-.04.1-.15.15-.25.11-.1-.04-.15-.15-.11-.25l4.6-11.92s.01-.03.02-.04Z"/>
            </g>
          </g>
        </g>
        <g>
          <g>
            <g>
              <g>
                <path class="cls-10" d="m182.94,120.8c-2.7,23.79-17.94,45.41-41.67,55.14-34.64,14.21-74.24-2.36-88.46-37-14.2-34.65,2.36-74.25,37-88.46,9.37-3.84,19.09-5.43,28.58-5.02,25.62,1.09,49.51,16.74,59.89,42.02,4.48,10.93,5.89,22.36,4.65,33.32Z"/>
                <path class="cls-6" d="m182.94,120.8c-2.7,23.79-17.94,45.41-41.67,55.14-34.64,14.21-74.24-2.36-88.46-37-14.2-34.65,2.36-74.25,37-88.46,9.37-3.84,19.09-5.43,28.58-5.02,25.62,1.09,49.51,16.74,59.89,42.02,4.48,10.93,5.89,22.36,4.65,33.32Z"/>
                <path class="cls-11" d="m182.94,120.8c-1.29,3.03-2.81,5.99-4.54,8.85v.02c-7.18,11.85-17.97,21.93-31.39,28.15-31.66,14.65-65.94,2.2-76.57-27.81-10.64-30,6.4-66.21,38.05-80.86.5-.23.99-.45,1.49-.67,2.79-1.21,5.61-2.21,8.41-3.01,25.62,1.09,49.51,16.74,59.89,42.02,4.48,10.93,5.89,22.36,4.65,33.32Z"/>
                <circle class="cls-12" cx="115.56" cy="113.2" r="64.96" transform="translate(-32.9 177.45) rotate(-67.81)"/>
              </g>
              <g>
                <path class="cls-5" d="m181.05,101.64c-.73.69-1.59-1.74-2.61-1.3-6.1,2.65-13.42,6.05-13.42,6.05l-.69-5.29-2.06-15.66s16.58-3.25,19.73,2.34c2.63,4.65,2.65,10.51-.95,13.86Z"/>
                <path class="cls-4" d="m181.05,101.64c-.73.69-1.59,1.26-2.61,1.7-6.1,2.65-13.42,3.05-13.42,3.05l-.69-5.29.39-4.88s12.61-4.47,15.66.72c.83,1.41.97,3.04.68,4.7Z"/>
              </g>
              <g>
                <circle class="cls-5" cx="114.91" cy="104.52" r="52.25" transform="translate(-40.25 111.87) rotate(-45)"/>
                <path class="cls-2" d="m96.95,60.73c8.53-3.5,17.48-4.32,25.93-2.87,15.53,2.67,24.39,13.03,30.81,28.7,6.42,15.66,8.84,32.77-.35,45.57-4.99,6.97-11.95,12.67-20.48,16.17-24.18,9.92-51.82-1.65-61.74-25.83-9.92-24.18,1.65-51.82,25.83-61.74Z"/>
                <path class="cls-7" d="m158.82,122.17c-.19.47-.38.93-.59,1.39-1.33,3.02-2.97,5.9-4.89,8.58-1.16,1.4-2.41,2.72-3.75,3.97-3.91,3.68-8.56,6.72-13.83,8.88-8.65,3.54-17.76,4.22-26.27,2.47-14.31-2.92-26.94-12.7-32.89-27.22-8.27-20.16-.97-42.83,16.32-54.63,2.59-1.79,5.41-3.31,8.42-4.55,7.07-2.89,14.44-3.88,21.54-3.19,8.04,1.38,15.65,4.84,21.99,10.02,5.9,4.81,10.73,11.13,13.82,18.67,4.87,11.88,4.56,24.59.13,35.61Z"/>
                <g>
                  <path class="cls-3" d="m117.83,70.05s-3.31-8.84-6.26-6.14c-2.95,2.7,5.77,17.31,5.77,17.31,0,0,10.07-13.63,6.87-17.19-3.19-3.56-6.38,6.02-6.38,6.02Z"/>
                  <path class="cls-3" d="m116.53,99.07c-.71-2.01-2.83-3.06-4.49-4.4-3.68-2.98-5.37-8.2-4.13-12.77,3.37.99,5.94,3.37,7.6,6.47,1.66,3.1,1.36,7.21,1.02,10.71Z"/>
                  <path class="cls-3" d="m118.24,92.93c.5-2.07.02-4.25.25-6.36.4-3.71,3.16-7.07,6.73-8.17.31,5.69-2.32,11.26-6.98,14.54Z"/>
                  <path class="cls-3" d="m118.06,99.1c.6-1.2.88-2.53,1.35-3.79,1.67-4.48,5.95-7.88,10.69-8.49-.16,3.07-1.84,6.1-4.18,8.1s-4.95,3.18-7.86,4.17Z"/>
                  <path class="cls-3" d="m115.29,106.91c-1.25-1.29-3.17-1.59-4.86-2.22-2.8-1.05-5.14-3.2-6.61-5.81-1.46-2.61-2.07-5.66-1.93-8.65,3.55,1.08,6.78,3.09,9.13,5.96,2.35,2.88,3.91,7.02,4.27,10.72Z"/>
                  <path class="cls-3" d="m117.21,107.63c.33-.79.66-1.57.98-2.36.44-1.06.89-2.13,1.46-3.12.71-1.24,1.62-2.36,2.64-3.36,3.37-3.33,8-5.36,12.73-5.58-.55,3.96-3.59,7.29-7.02,9.33-3.43,2.04-7.32,3.09-10.78,5.09Z"/>
                  <path class="cls-3" d="m115.65,115.14c-1.17-.85-2.64-1.13-4.05-1.44-2.5-.55-4.97-1.28-7.37-2.18-1.24-.46-2.46-.98-3.59-1.65-4.58-2.74-7.3-8.29-6.65-13.58,4.78,1.04,8.79,4.11,12.09,7.72,3.3,3.6,6.18,7.62,9.57,11.14Z"/>
                  <path class="cls-3" d="m116.85,114.42c4.79-7.84,13.8-12.92,22.99-12.97-.72,2.81-2.57,5.23-4.98,6.84-1.75,1.18-3.71,2.02-5.66,2.82-3.69,1.52-8.4,2.69-12.34,3.31Z"/>
                  <path class="cls-3" d="m115.09,123.76c-1.21-.51-2.51-.76-3.8-1.04-2.82-.61-5.62-1.34-8.38-2.18-3.63-1.11-7.25-2.45-10.37-4.61-3.12-2.16-5.74-5.24-6.73-8.91,5.47.34,10.81,2.41,15.64,5,5.31,2.84,10.55,6.56,13.63,11.74Z"/>
                  <path class="cls-3" d="m145.98,110.05c-10.73-.3-21.47,4.89-27.9,13.49,3.81-1.32,7.8-1.51,11.63-2.77,6.18-2.03,11.42-6.37,16.27-10.71Z"/>
                  <path class="cls-3" d="m115.11,133.8c-1.95.23-3.93.35-5.89.25-3.75-.17-7.48-1.11-10.75-2.96-3.26-1.85-6.03-4.63-7.63-8.03,3.15-.17,6.4-.48,9.53-.11,3.13.37,6.26,1.32,8.81,3.18,2.34,1.72,4.77,5,5.93,7.66Z"/>
                  <path class="cls-3" d="m117.46,133.67c1.07-2.02,2.55-3.82,4.32-5.26,2.46-1.99,5.45-3.27,8.53-3.98,3.09-.71,6.27-.87,9.44-.79-.59,3.06-2.56,5.52-5.24,7.11-2.68,1.6-5.75,2.36-8.81,2.97-2.63.52-5.62.51-8.24-.06Z"/>
                </g>
              </g>
            </g>
            <g>
              <path class="cls-9" d="m72.19,161.58c0,1.27,0,2.52-.03,3.74-.1,5.93-.39,11.14-.99,14.6-1.62,9.31-12.03,16.2-13.5,21.61-.88,3.19-1.58,9.47-2,14.08H6.26v-76.43c2.7-3.13,5.99-4.67,5.99-4.67,0,0,.33-1.1,1.13-2.71.05-.1.09-.18.13-.28.92-1.82,2.41-4.21,4.65-6.39,2.13-2.1,4.95-4.01,8.61-5.07h0s.08-.03.12-.04c0,0,0,0,0,0,0,0,6.26-13.41,8.84-16.04,1.63-1.67,3.57-3.38,5.66-5.09.15-.13.31-.25.47-.38,2.2-1.77,4.58-3.53,6.97-5.22.19-.13.38-.27.58-.41.62-.43,1.24-.87,1.87-1.31.64-.43,1.29-.87,1.92-1.3.71-.48,1.41-.95,2.11-1.4,2.55-1.69,4.96-3.24,7.06-4.6.47-.3.92-.59,1.37-.87,0,0,.03-.02.04-.03.23-.14.45-.29.67-.43.3-.19.63-.3.94-.31.61-.04,1.19.22,1.55.72.02.03.04.07.06.1.03.03.04.07.06.1.04.07.07.13.1.2.03.08.05.15.07.23.54,2.32,1.1,5.9.47,9.28-.03.15-.07.3-.1.45-.27,1.21-.69,2.38-1.34,3.46-.86,1.43-2.12,2.99-3.53,4.54-4.43,4.85-10.44,9.55-10.92,9.92-.02.02-.03.03-.03.03l-1.14,4.15-.65,2.38s.33.19.85.61c2.02,1.61,6.98,6.49,6.85,15.68,0,0,.43-1.32,1.24-3.16,0,0,0-.02,0-.03,1.31-2.98,3.6-7.33,6.63-9.65.05-.04.09-.08.13-.11.73-.55,1.5-.98,2.31-1.24.04,0,.08-.03.12-.04.53-.16,1.07-.07,1.49.21.22.13.41.34.56.57.13.2.22.44.25.7.25,2.09.56,5.78.84,10.37.03.4.06.82.08,1.24.05.78.1,1.58.14,2.39.42,7.78.75,17.29.73,25.83Z"/>
              <path class="cls-3" d="m52.62,90.2c.97.12,1.93.25,2.9.37,1.38.18,2.78.36,4.15.13,1.81-.3,3.49-1.32,4.59-2.79,1.1-1.47,1.59-3.38,1.36-5.2-4.57,2.1-8.94,4.51-13,7.48Z"/>
              <path class="cls-13" d="m23.96,130.49l2.95-10.48s4.26-12.28,10.31-17.68c6.06-5.4,26.68-20.13,28.81-19.8,2.13.33,3.6,10.8-.65,15.88-4.26,5.07-13.59,13.26-13.59,13.26l-7.53,26.84,6.87,16.2"/>
              <path class="cls-13" d="m48.18,157.99s4.58-2.95,6.06-7.53c1.47-4.58,3.44-15.71,4.26-18,.82-2.29,4.91-12.77,11.29-11.95"/>
              <path class="cls-13" d="m11.27,137.69s2.09-8.47,6.38-12.15c4.3-3.68,9.25-5.52,9.25-5.52"/>
              <path class="cls-3" d="m71.47,135.75c-.81.06-1.59-.48-2.14-1.09-2.05-2.23-2.41-5.52-2.24-8.55.11-1.88,1.14-4.72,3.08-5.07.13.2.22.44.25.7.32,2.62.72,7.75,1.06,14Z"/>
            </g>
          </g>
          <g>
            <path class="cls-10" d="m139.28,74.77c-.61,2.17.03,4.48.84,6.58,1.23,3.19,2.89,6.28,5.3,8.71,1.73,1.75,4.36,3.19,6.57,2.09,1.22-.61,2-1.9,2.26-3.24.26-1.34.06-2.73-.26-4.05-.99-4.03-3.18-7.74-6.18-10.59-1.06-1.01-2.73-2.85-4.25-3-1.97-.2-3.79,1.77-4.27,3.5Z"/>
            <path class="cls-10" d="m151.72,98.61c-.14,1.01-.2,2.05.02,3.05.22,1,.75,1.96,1.6,2.53.71.48,1.6.66,2.46.63.56-.02,1.13-.12,1.59-.44.78-.54,1.05-1.57,1.09-2.51.1-2.35-1.08-4.9-2.81-6.5-2.15-1.98-3.67,1.32-3.94,3.23Z"/>
          </g>
        </g>
        <g>
          <g>
            <g>
              <g>
                <path class="cls-10" d="m66.53,39.12s-4.51-21.08,1.84-21.01c6.35.07-.84,21.18-.84,21.18l-1-.18Z"/>
                <path class="cls-10" d="m67.47,41.82s4.51,21.08-1.84,21.01c-6.35-.07.84-21.18.84-21.18l1,.18Z"/>
              </g>
              <g>
                <path class="cls-10" d="m67.48,39.12s9.58-19.31,14.51-15.3c4.92,4-13.83,16.06-13.83,16.06l-.67-.76Z"/>
                <path class="cls-10" d="m66.53,41.82s-9.58,19.31-14.51,15.3c-4.92-4,13.83-16.06,13.83-16.06l.67.76Z"/>
              </g>
              <g>
                <path class="cls-10" d="m68.11,39.56s18.24-11.49,20.36-5.5c2.12,5.98-20.18,6.5-20.18,6.5l-.18-1Z"/>
                <path class="cls-10" d="m65.9,41.37s-18.24,11.49-20.36,5.5c-2.12-5.98,20.18-6.5,20.18-6.5l.18,1Z"/>
              </g>
              <g>
                <path class="cls-10" d="m68.43,40.42s21.47,1.91,19.53,7.96-19.99-7.05-19.99-7.05l.46-.9Z"/>
                <path class="cls-10" d="m65.57,40.52s-21.47-1.91-19.53-7.96c1.94-6.04,19.99,7.05,19.99,7.05l-.46.9Z"/>
              </g>
              <g>
                <path class="cls-10" d="m68.16,41.31s15.69,14.78,10.43,18.33c-5.26,3.55-11.35-17.91-11.35-17.91l.92-.42Z"/>
                <path class="cls-10" d="m65.85,39.62s-15.69-14.78-10.43-18.33c5.26-3.55,11.35,17.91,11.35,17.91l-.92.42Z"/>
              </g>
            </g>
            <circle class="cls-4" cx="66.84" cy="40.43" r="3.94"/>
          </g>
          <g>
            <g>
              <g>
                <path class="cls-10" d="m166.87,190.64s-4.51-21.08,1.84-21.01c6.35.07-.84,21.18-.84,21.18l-1-.18Z"/>
                <path class="cls-10" d="m167.81,193.34s4.51,21.08-1.84,21.01c-6.35-.07.84-21.18.84-21.18l1,.18Z"/>
              </g>
              <g>
                <path class="cls-10" d="m167.82,190.64s9.58-19.31,14.51-15.3c4.92,4-13.83,16.06-13.83,16.06l-.67-.76Z"/>
                <path class="cls-10" d="m166.87,193.34s-9.58,19.31-14.51,15.3c-4.92-4,13.83-16.06,13.83-16.06l.67.76Z"/>
              </g>
              <g>
                <path class="cls-10" d="m168.45,191.08s18.24-11.49,20.36-5.5c2.12,5.98-20.18,6.5-20.18,6.5l-.18-1Z"/>
                <path class="cls-10" d="m166.23,192.89s-18.24,11.49-20.36,5.5c-2.12-5.98,20.18-6.5,20.18-6.5l.18,1Z"/>
              </g>
              <g>
                <path class="cls-10" d="m168.77,191.94s21.47,1.91,19.53,7.96c-1.94,6.04-19.99-7.05-19.99-7.05l.46-.9Z"/>
                <path class="cls-10" d="m165.91,192.04s-21.47-1.91-19.53-7.96c1.94-6.04,19.99,7.05,19.99,7.05l-.46.9Z"/>
              </g>
              <g>
                <path class="cls-10" d="m168.5,192.83s15.69,14.78,10.43,18.33c-5.26,3.55-11.35-17.91-11.35-17.91l.92-.42Z"/>
                <path class="cls-10" d="m166.19,191.14s-15.69-14.78-10.43-18.33c5.26-3.55,11.35,17.91,11.35,17.91l-.92.42Z"/>
              </g>
            </g>
            <circle class="cls-4" cx="167.17" cy="191.95" r="3.94"/>
          </g>
        </g>
        <g>
          <path class="cls-10" d="m117.64,30.45l-3.98,1.27c-1.13.36-2.01,1.24-2.37,2.37l-1.27,3.98c-.25.77-1.33.77-1.58,0l-1.27-3.98c-.36-1.13-1.24-2.01-2.37-2.37l-3.98-1.27c-.77-.25-.77-1.33,0-1.58l3.98-1.27c1.13-.36,2.01-1.24,2.37-2.37l1.27-3.98c.25-.77,1.33-.77,1.58,0l1.27,3.98c.36,1.13,1.24,2.01,2.37,2.37l3.98,1.27c.77.25.77,1.33,0,1.58Z"/>
          <path class="cls-10" d="m196.2,145.99l-3.98,1.27c-1.13.36-2.01,1.24-2.37,2.37l-1.27,3.98c-.25.77-1.33.77-1.58,0l-1.27-3.98c-.36-1.13-1.24-2.01-2.37-2.37l-3.98-1.27c-.77-.25-.77-1.33,0-1.58l3.98-1.27c1.13-.36,2.01-1.24,2.37-2.37l1.27-3.98c.25-.77,1.33-.77,1.58,0l1.27,3.98c.36,1.13,1.24,2.01,2.37,2.37l3.98,1.27c.77.25.77,1.33,0,1.58Z"/>
          <path class="cls-10" d="m103.88,198.53l-3.98,1.27c-1.13.36-2.01,1.24-2.37,2.37l-1.27,3.98c-.25.77-1.33.77-1.58,0l-1.27-3.98c-.36-1.13-1.24-2.01-2.37-2.37l-3.98-1.27c-.77-.25-.77-1.33,0-1.58l3.98-1.27c1.13-.36,2.01-1.24,2.37-2.37l1.27-3.98c.25-.77,1.33-.77,1.58,0l1.27,3.98c.36,1.13,1.24,2.01,2.37,2.37l3.98,1.27c.77.25.77,1.33,0,1.58Z"/>
        </g>
      </g>
    </g>
  </g>
</svg>