<?xml version="1.0" encoding="UTF-8"?>
<svg id="Layer_2" data-name="Layer 2" xmlns="http://www.w3.org/2000/svg" viewBox="0 0 203.73 221.37">
  <defs>
    <style>
      .cls-1 {
        fill: #5d7a72;
      }

      .cls-1, .cls-2, .cls-3, .cls-4, .cls-5, .cls-6, .cls-7, .cls-8, .cls-9, .cls-10, .cls-11 {
        stroke-width: 0px;
      }

      .cls-2, .cls-7 {
        fill: #260b05;
      }

      .cls-3 {
        fill: #e49745;
      }

      .cls-4 {
        fill: #fff;
      }

      .cls-5 {
        opacity: .39;
      }

      .cls-5, .cls-10 {
        fill: #8b4034;
      }

      .cls-6 {
        fill: #dc9f8e;
        opacity: .21;
      }

      .cls-7 {
        opacity: .28;
      }

      .cls-8 {
        fill: #ba684e;
      }

      .cls-9 {
        fill: #b4d2c4;
      }

      .cls-12 {
        fill: none;
        opacity: .56;
        stroke: #fff;
        stroke-miterlimit: 10;
        stroke-width: .62px;
      }

      .cls-11 {
        fill: #ffe9d9;
      }
    </style>
  </defs>
  <g id="OBJECTS">
    <g>
      <path class="cls-4" d="m5.77,221.37c-3.19,0-5.77-2.58-5.77-5.77v-113.73C0,45.7,45.7,0,101.87,0c16.34,0,32.58,3.96,46.98,11.46,1.78.93,3.39,1.83,4.93,2.74,2.03,1.2,4.13,2.54,6.2,3.99,4.95,3.44,9.63,7.36,13.92,11.65,19.24,19.24,29.84,44.82,29.84,72.04v113.73c0,3.19-2.58,5.77-5.77,5.77H5.77Z"/>
      <path class="cls-9" d="m197.96,102.36v113.73H5.77v-113.73C5.77,49.28,48.79,6.26,101.87,6.26c15.98,0,31.06,3.9,44.32,10.81,1.57.82,3.12,1.67,4.63,2.58,2.01,1.18,3.96,2.44,5.87,3.77,4.7,3.27,9.1,6.95,13.14,10.99,17.4,17.4,28.15,41.42,28.15,67.96Z"/>
      <g>
        <g>
          <g>
            <g>
              <circle class="cls-11" cx="104.57" cy="118.3" r="76.58"/>
              <circle class="cls-6" cx="104.57" cy="118.3" r="76.58"/>
              <circle class="cls-5" cx="111.12" cy="113.58" r="63.03" transform="translate(-46.62 132.72) rotate(-52.54)"/>
              <circle class="cls-12" cx="104.57" cy="118.3" r="73.37" transform="translate(-2.98 2.7) rotate(-1.46)"/>
              <g>
                <path class="cls-1" d="m36.92,124.4c-4.2-8.81-13.28-15.02-15.71-24.46-1.45-5.65-.24-11.72,2.21-17.02,2.45-5.3,6.07-9.95,9.65-14.56,3.69,2.35,6.54,5.5,9.25,8.94,2.54,3.22,4.96,6.59,6.54,10.38,1.58,3.79,2.25,8.06,1.22,12.03-.46,1.76-1.24,3.41-2.04,5.04-3.25,6.63-7.14,13.43-11.12,19.65Z"/>
                <g>
                  <path class="cls-2" d="m36.99,124.61s-.02,0-.03,0c-.12.02-.23-.06-.25-.18-.07-.43-7.14-43.18-3.84-56.13.03-.12.15-.19.27-.16.12.03.19.15.16.27-3.28,12.86,3.78,55.52,3.85,55.95.02.11-.05.21-.15.24Z"/>
                  <path class="cls-2" d="m32.33,85.52c-.07.02-.14.01-.2-.03l-7.33-5.72c-.1-.07-.11-.21-.04-.31.08-.09.21-.11.31-.04l7.19,5.61,9.93-7.91c.1-.07.23-.06.31.04.08.09.06.23-.03.31l-10.06,8.02s-.04.03-.07.04Z"/>
                  <path class="cls-2" d="m33.45,98.73c-.05.02-.12.02-.17-.01l-12.65-6.58c-.11-.06-.15-.19-.09-.3.06-.11.19-.15.3-.09l12.65,6.58c.11.06.15.19.09.3-.03.05-.07.09-.12.11Z"/>
                  <path class="cls-2" d="m34.37,105.84c-.08.03-.18,0-.24-.07-.08-.09-.07-.23.03-.31l15.97-13.56c.09-.08.23-.07.31.03.08.09.07.23-.02.31l-15.97,13.56s-.05.03-.07.04Z"/>
                  <path class="cls-2" d="m35.31,113.47s-.1.02-.15,0l-9.15-3.77c-.11-.05-.16-.17-.12-.29.05-.11.17-.17.29-.12l9.05,3.73,12.17-7.55c.1-.07.24-.03.3.07.06.1.03.24-.07.3l-12.26,7.61s-.03.02-.05.02Z"/>
                </g>
              </g>
              <circle class="cls-4" cx="104.57" cy="118.3" r="60.58" transform="translate(-53.02 108.59) rotate(-45)"/>
              <path class="cls-10" d="m83.75,67.53c9.89-4.06,20.27-5.01,30.06-3.32,18.01,3.09,29.07,15.11,36.51,33.27,7.45,18.16,9.45,37.99-1.2,52.84-5.79,8.08-13.85,14.69-23.74,18.74-28.03,11.5-60.08-1.91-71.58-29.94-11.5-28.03,1.91-60.08,29.94-71.58Z"/>
              <path class="cls-2" d="m155.48,138.76c-.21.54-.44,1.07-.68,1.61-1.54,3.5-3.44,6.83-5.67,9.95-1.35,1.62-2.79,3.16-4.34,4.61-4.54,4.27-9.92,6.78-16.03,9.3-10.03,4.11-20.59,4.89-30.46,2.86-16.59-3.38-30.23-13.72-37.13-30.56-9.58-23.38-2.12-49.65,17.92-63.33,3-2.07,6.27-3.84,9.76-5.27,8.19-3.35,16.74-4.5,24.97-3.7,9.32,1.6,18.14,5.61,25.49,11.62,6.85,5.58,12.44,12.9,16.02,21.65,5.65,13.77,5.28,28.5.15,41.28Z"/>
              <path class="cls-8" d="m131.71,156.67c-.31.57-.62,1.17-1.14,1.56-1.61,1.2-3.78-.18-5.76-.53-3.42-.59-6.55,2.16-10.01,2.46-4.38.37-8.01-3.1-11.96-5.04-3.43-1.69-7.4-2.24-11.16-1.56-1.57.28-3.2.78-4.74.32-1.96-.6-3.15-2.6-3.71-4.57-.58-1.97-.74-4.06-1.6-5.93-1.74-3.81-5.91-5.78-9.09-8.53-7.23-6.21-9.38-16.62-8.75-26.14.87-13.1,6.45-25.8,15.28-35.52-20.04,13.68-28.5,39.95-18.92,63.33,6.9,16.84,21.54,28.17,38.13,31.56,9.87,2.03,20.44,1.24,30.46-2.86,6.11-2.51,11.5-6.03,16.03-10.3,1.55-1.45,3-2.99,4.34-4.61,2.23-3.11,4.13-6.45,5.67-9.95.24-.53.46-1.06.68-1.61-9.92,2.36-18.82,8.97-23.76,17.91Zm-40.3,3.41c-.87.35-1.95.11-2.61-.55-.68-.66-.95-1.69-.76-2.6.58-2.75,4.18-2.04,4.75.31.28,1.12-.32,2.41-1.38,2.85Zm3.75,2.55c-.05.32-.19.62-.45.8-.28.19-.64.21-.97.17-.2-.02-.41-.07-.59-.17-.46-.25-.72-.8-.67-1.32.15-1.15,1.44-1.57,2.26-.77.33.33.49.83.42,1.29Zm9.53-.96c-.54,1.1-1.93,1.43-3.15,1.44-1.55.01-3.13-.33-4.44-1.17-1.98-1.29-3.97-5.34-.84-6.49,2.96-1.11,6.55.76,8.06,3.35.5.87.81,1.98.36,2.87Zm6.31,5.33c-.38.08-.79.06-1.19-.03-2.94-.68-1.82-4.39.8-4.45,2.82-.07,3.09,3.94.38,4.48Z"/>
              <path class="cls-2" d="m63.27,132.78c.36.4.78.77,1.29.95.51.18,1.11.15,1.54-.17.57-.43.7-1.23.68-1.94-.04-1.49-1.53-6.43-3.78-5.75-2.54.77-.81,5.68.27,6.91Z"/>
              <path class="cls-2" d="m58.93,122.12c.12.74.59,1.43,1.28,1.71.69.28,1.57.09,2.01-.51.31-.42.38-.97.37-1.5-.01-1.1-.69-2.96-2.13-2.72-1.15.19-1.69,2.06-1.54,3.02Z"/>
              <path class="cls-2" d="m62.67,137.22c.02.68.25,1.39.76,1.84.71.62,1.9.54,2.55-.14s.67-1.86.07-2.58c-1-1.19-3.44-.95-3.38.87Z"/>
              <path class="cls-2" d="m67.97,137.22c.02.68.25,1.39.76,1.84.71.62,1.9.54,2.55-.14s.67-1.86.07-2.58c-1-1.19-3.44-.95-3.38.87Z"/>
            </g>
            <path class="cls-4" d="m145.74,160.19l10.96,6.89c4.67,2.94,10.82,1.76,14.08-2.7h0c3.39-4.65,2.41-11.16-2.2-14.6l-10.22-7.63-12.62,18.04Z"/>
          </g>
          <g>
            <path class="cls-11" d="m119.95,77.67c.2,1.29.74,2.57,1.36,3.47,1.57,2.29,3.84,3.94,6.1,5.49,2.05,1.41,4.09,3.31,6.4,4.22,1.7.67,3.71.8,5.32-.07,3-1.63,2.32-5.31,1.03-7.82-2.76-5.4-12.13-13.59-18.66-9.56-1.49.92-1.81,2.61-1.55,4.28Z"/>
            <path class="cls-11" d="m140.22,98.36c.4,2.2,2.48,3.92,4.71,4.04.71.04,1.43-.07,2.05-.42.89-.5,1.47-1.45,1.73-2.44.75-2.87-1.36-5.77-4.26-6.27-2.72-.47-4.68,2.62-4.23,5.09Z"/>
          </g>
        </g>
        <g>
          <path class="cls-1" d="m109.03,187.02c9.66-1.37,18.3-8.18,28.04-7.67,5.83.3,11.26,3.28,15.58,7.2s7.68,8.76,11.01,13.56c-3.35,2.82-7.2,4.6-11.3,6.16-3.83,1.46-7.77,2.77-11.86,3.14-4.09.37-8.37-.26-11.84-2.44-1.54-.96-2.88-2.2-4.2-3.46-5.35-5.08-10.68-10.83-15.43-16.49Z"/>
          <g>
            <path class="cls-2" d="m108.81,187.02s0-.02,0-.03c.02-.12.13-.2.25-.19.43.06,43.34,6.09,54.71,13.11.1.06.13.2.07.3-.06.1-.2.14-.3.07-11.29-6.97-54.11-12.99-54.54-13.05-.11-.02-.19-.11-.19-.21Z"/>
            <path class="cls-2" d="m147.5,194.27c0-.07.03-.14.09-.18l7.64-5.28c.1-.07.24-.04.3.06.07.1.04.24-.06.3l-7.5,5.19,4.58,11.84c.04.11-.01.24-.13.28-.11.04-.24-.01-.28-.13l-4.64-12s-.01-.05-.01-.07Z"/>
            <path class="cls-2" d="m134.56,191.38c0-.06.02-.12.06-.16l10.06-10.11c.08-.09.22-.09.31,0,.09.09.09.22,0,.31l-10.06,10.11c-.09.09-.22.09-.31,0-.04-.04-.06-.1-.06-.15Z"/>
            <path class="cls-2" d="m127.5,190.13c0-.09.05-.17.13-.21.11-.05.24,0,.29.12l8.17,19.29c.05.11,0,.24-.12.29-.11.05-.24,0-.29-.12l-8.17-19.29s-.02-.05-.02-.08Z"/>
            <path class="cls-2" d="m119.93,188.75c0-.05.02-.1.05-.14l6.33-7.61c.08-.09.21-.11.31-.03.09.08.11.21.03.31l-6.26,7.52,3.57,13.87c.03.12-.04.24-.16.27-.12.03-.24-.04-.27-.16l-3.59-13.98s0-.03,0-.05Z"/>
          </g>
        </g>
      </g>
      <g>
        <path class="cls-2" d="m169.6,84.7c5.18,3.54,8.66,6.03,6.79,9.56-.08.17-.18.34-.3.5-2.39,3.5-8.73,3.32-14.16-.39-5.42-3.71-7.89-9.55-5.5-13.05.11-.17.23-.32.36-.46,2.61-3.02,7.62.3,12.8,3.83Z"/>
        <path class="cls-10" d="m170.6,81.7c4.01,2.74,6.41,6.65,6.41,9.92,0,.27,0,.53-.04.79-.09.66-.27,1.28-.57,1.85-2.62,3.03-8.63,2.71-13.81-.83-5-3.42-7.49-8.66-5.94-12.2.05-.12.11-.24.16-.36.04-.04.06-.08.1-.11,2.66-2.9,8.59-2.54,13.7.95Z"/>
        <path class="cls-2" d="m177.01,91.62c0,.27,0,.53-.04.79-1.34-1.96-3.19-3.58-5.35-4.62-1.74-.84-3.67-1.31-5.54-1.76-1.09-.27-2.22-.55-3.31-.89-2.05-.66-4.56-1.83-6.12-3.91.05-.12.11-.24.16-.36.04-.04.06-.08.1-.11,1.57,2.19,4.32,3.36,6.01,3.9,1.07.34,2.19.61,3.27.88,1.9.46,3.85.93,5.64,1.8,2.05.99,3.83,2.47,5.18,4.28Z"/>
      </g>
      <g>
        <path class="cls-2" d="m175.13,106.95c5.77-2.47,10.73-3.62,12.71-.15.1.16.19.33.27.52,1.67,3.9-1.88,9.15-7.93,11.74-6.04,2.59-12.29,1.53-13.96-2.37-.08-.18-.14-.36-.19-.55-1.15-3.83,3.35-6.73,9.11-9.19Z"/>
        <path class="cls-10" d="m174.13,104.95c4.47-1.91,9.05-1.84,11.81-.08.23.14.44.29.64.46.51.43.94.92,1.26,1.48,1.15,3.84-2.34,8.74-8.11,11.21-5.57,2.38-11.33,1.67-13.48-1.53-.08-.11-.15-.22-.22-.33-.01-.05-.03-.1-.04-.15-1.02-3.81,2.46-8.61,8.15-11.05Z"/>
        <path class="cls-2" d="m185.94,104.87c.23.14.44.29.64.46-2.38.08-4.73.77-6.77,2.04-1.65,1.02-3.07,2.4-4.46,3.73-.81.77-1.66,1.58-2.53,2.32-1.66,1.38-4,2.87-6.58,3.07-.08-.11-.15-.22-.22-.33-.01-.05-.03-.1-.04-.15,2.69-.15,5.15-1.85,6.52-2.98.86-.72,1.69-1.52,2.5-2.29,1.4-1.35,2.86-2.75,4.55-3.79,1.93-1.2,4.14-1.9,6.39-2.07Z"/>
      </g>
      <g>
        <g>
          <path class="cls-10" d="m136.95,46.08s-5.8-14.52,1.84-22.06c0,0,2.82,3.55,2.46,10.31s-4.3,11.75-4.3,11.75Z"/>
          <path class="cls-10" d="m137.09,45.45s5.8,14.52-1.84,22.06c0,0-2.82-3.55-2.46-10.31.37-6.76,4.3-11.75,4.3-11.75Z"/>
          <path class="cls-7" d="m137.04,45.58s-3.09-7.73.98-11.74c0,0,1.5,1.89,1.31,5.49-.2,3.6-2.29,6.25-2.29,6.25Z"/>
          <path class="cls-7" d="m137,46.31s3.24,7.63-.74,11.76c0,0-1.54-1.84-1.42-5.45.12-3.6,2.16-6.32,2.16-6.32Z"/>
        </g>
        <g>
          <path class="cls-10" d="m136.78,45.98s3.89-15.15,14.51-16.72c0,0,.18,4.53-4.11,9.77s-10.41,6.95-10.41,6.95Z"/>
          <path class="cls-10" d="m137.26,45.55s-3.89,15.15-14.51,16.72c0,0-.18-4.53,4.11-9.77,4.29-5.24,10.41-6.95,10.41-6.95Z"/>
          <path class="cls-7" d="m137.15,45.63s2.07-8.06,7.72-8.9c0,0,.1,2.41-2.18,5.2-2.28,2.79-5.54,3.7-5.54,3.7Z"/>
          <path class="cls-7" d="m136.68,46.19s-1.89,8.08-7.54,9.06c0,0-.16-2.4,2.07-5.23,2.23-2.84,5.47-3.83,5.47-3.83Z"/>
        </g>
        <g>
          <path class="cls-10" d="m136.7,45.8s12.09-9.93,21.58-4.93c0,0-2.53,3.77-9.08,5.46-6.56,1.7-12.5-.54-12.5-.54Z"/>
          <path class="cls-10" d="m137.34,45.74s-12.09,9.93-21.58,4.93c0,0,2.53-3.77,9.08-5.46,6.56-1.7,12.5.54,12.5.54Z"/>
          <path class="cls-7" d="m137.21,45.73s6.43-5.28,11.48-2.62c0,0-1.34,2-4.83,2.91-3.49.9-6.65-.29-6.65-.29Z"/>
          <path class="cls-7" d="m136.49,45.91s-6.29,5.4-11.44,2.86c0,0,1.29-2.03,4.76-3,3.47-.98,6.68.14,6.68.14Z"/>
        </g>
        <g>
          <path class="cls-10" d="m136.74,45.6s15.61-.88,20.33,8.77c0,0-4.26,1.55-10.56-.95-6.29-2.5-9.77-7.81-9.77-7.81Z"/>
          <path class="cls-10" d="m137.29,45.93s-15.61.88-20.33-8.77c0,0,4.26-1.55,10.56.95,6.29,2.5,9.77,7.81,9.77,7.81Z"/>
          <path class="cls-7" d="m137.19,45.85s8.31-.47,10.82,4.67c0,0-2.27.82-5.62-.51-3.35-1.33-5.2-4.16-5.2-4.16Z"/>
          <path class="cls-7" d="m136.51,45.57s-8.27.65-10.92-4.44c0,0,2.24-.87,5.61.39,3.38,1.26,5.3,4.06,5.3,4.06Z"/>
        </g>
        <g>
          <path class="cls-10" d="m136.89,45.47s13.12,8.51,11.23,19.08c0,0-4.35-1.27-7.96-7-3.6-5.74-3.27-12.08-3.27-12.08Z"/>
          <path class="cls-10" d="m137.14,46.06s-13.12-8.51-11.23-19.08c0,0,4.35,1.27,7.96,7,3.6,5.74,3.27,12.08,3.27,12.08Z"/>
          <path class="cls-7" d="m137.11,45.94s6.98,4.53,5.98,10.15c0,0-2.32-.67-4.23-3.73-1.92-3.05-1.74-6.43-1.74-6.43Z"/>
          <path class="cls-7" d="m136.72,45.31s-7.06-4.36-6.19-10.03c0,0,2.32.61,4.3,3.63,1.98,3.01,1.89,6.41,1.89,6.41Z"/>
        </g>
      </g>
      <g>
        <g>
          <g>
            <path class="cls-11" d="m69.98,36.27s-4.07-19.04,1.66-18.98c5.73.07-.76,19.14-.76,19.14l-.9-.16Z"/>
            <path class="cls-11" d="m70.82,38.72s4.07,19.04-1.66,18.98c-5.73-.07.76-19.14.76-19.14l.9.16Z"/>
          </g>
          <g>
            <path class="cls-11" d="m70.83,36.27s8.66-17.44,13.11-13.83c4.45,3.62-12.5,14.51-12.5,14.51l-.61-.69Z"/>
            <path class="cls-11" d="m69.97,38.71s-8.66,17.44-13.11,13.83c-4.45-3.62,12.5-14.51,12.5-14.51l.61.69Z"/>
          </g>
          <g>
            <path class="cls-11" d="m71.4,36.68s16.48-10.38,18.39-4.97c1.91,5.41-18.23,5.87-18.23,5.87l-.16-.9Z"/>
            <path class="cls-11" d="m69.4,38.31s-16.48,10.38-18.39,4.97c-1.91-5.41,18.23-5.87,18.23-5.87l.16.9Z"/>
          </g>
          <g>
            <path class="cls-11" d="m71.69,37.45s19.4,1.73,17.64,7.19c-1.75,5.46-18.06-6.37-18.06-6.37l.42-.82Z"/>
            <path class="cls-11" d="m69.11,37.54s-19.4-1.73-17.64-7.19c1.75-5.46,18.06,6.37,18.06,6.37l-.42.82Z"/>
          </g>
          <g>
            <path class="cls-11" d="m71.44,38.26s14.17,13.35,9.42,16.56-10.25-16.18-10.25-16.18l.83-.38Z"/>
            <path class="cls-11" d="m69.36,36.73s-14.17-13.35-9.42-16.56c4.75-3.2,10.25,16.18,10.25,16.18l-.83.38Z"/>
          </g>
        </g>
        <path class="cls-3" d="m73.8,37.46c0,1.96-1.59,3.56-3.56,3.56s-3.56-1.59-3.56-3.56,1.59-3.56,3.56-3.56,3.56,1.59,3.56,3.56Z"/>
      </g>
      <g>
        <g>
          <g>
            <path class="cls-11" d="m39.16,185.42s-4.51-21.08,1.84-21.01c6.35.07-.84,21.18-.84,21.18l-1-.18Z"/>
            <path class="cls-11" d="m40.1,188.12s4.51,21.08-1.84,21.01c-6.35-.07.84-21.18.84-21.18l1,.18Z"/>
          </g>
          <g>
            <path class="cls-11" d="m40.1,185.42s9.58-19.31,14.51-15.3c4.92,4-13.83,16.06-13.83,16.06l-.67-.76Z"/>
            <path class="cls-11" d="m39.16,188.12s-9.58,19.31-14.51,15.3c-4.92-4,13.83-16.06,13.83-16.06l.67.76Z"/>
          </g>
          <g>
            <path class="cls-11" d="m40.74,185.86s18.24-11.49,20.36-5.5c2.12,5.98-20.18,6.5-20.18,6.5l-.18-1Z"/>
            <path class="cls-11" d="m38.52,187.67s-18.24,11.49-20.36,5.5,20.18-6.5,20.18-6.5l.18,1Z"/>
          </g>
          <g>
            <path class="cls-11" d="m41.06,186.72s21.47,1.91,19.53,7.96-19.99-7.05-19.99-7.05l.46-.9Z"/>
            <path class="cls-11" d="m38.2,186.82s-21.47-1.91-19.53-7.96c1.94-6.04,19.99,7.05,19.99,7.05l-.46.9Z"/>
          </g>
          <g>
            <path class="cls-11" d="m40.78,187.61s15.69,14.78,10.43,18.33c-5.26,3.55-11.35-17.91-11.35-17.91l.92-.42Z"/>
            <path class="cls-11" d="m38.47,185.92s-15.69-14.78-10.43-18.33c5.26-3.55,11.35,17.91,11.35,17.91l-.92.42Z"/>
          </g>
        </g>
        <path class="cls-3" d="m43.4,186.73c0,2.17-1.76,3.94-3.94,3.94s-3.94-1.76-3.94-3.94,1.76-3.94,3.94-3.94,3.94,1.76,3.94,3.94Z"/>
      </g>
      <g>
        <path class="cls-11" d="m188.35,181.12l-3.98,1.27c-1.13.36-2.01,1.24-2.37,2.37l-1.27,3.98c-.25.77-1.33.77-1.58,0l-1.27-3.98c-.36-1.13-1.24-2.01-2.37-2.37l-3.98-1.27c-.77-.25-.77-1.33,0-1.58l3.98-1.27c1.13-.36,2.01-1.24,2.37-2.37l1.27-3.98c.25-.77,1.33-.77,1.58,0l1.27,3.98c.36,1.13,1.24,2.01,2.37,2.37l3.98,1.27c.77.25.77,1.33,0,1.58Z"/>
        <path class="cls-11" d="m182.79,64.25l-3.98,1.27c-1.13.36-2.01,1.24-2.37,2.37l-1.27,3.98c-.25.77-1.33.77-1.58,0l-1.27-3.98c-.36-1.13-1.24-2.01-2.37-2.37l-3.98-1.27c-.77-.25-.77-1.33,0-1.58l3.98-1.27c1.13-.36,2.01-1.24,2.37-2.37l1.27-3.98c.25-.77,1.33-.77,1.58,0l1.27,3.98c.36,1.13,1.24,2.01,2.37,2.37l3.98,1.27c.77.25.77,1.33,0,1.58Z"/>
        <path class="cls-11" d="m27.78,142l-3.98,1.27c-1.13.36-2.01,1.24-2.37,2.37l-1.27,3.98c-.25.77-1.33.77-1.58,0l-1.27-3.98c-.36-1.13-1.24-2.01-2.37-2.37l-3.98-1.27c-.77-.25-.77-1.33,0-1.58l3.98-1.27c1.13-.36,2.01-1.24,2.37-2.37l1.27-3.98c.25-.77,1.33-.77,1.58,0l1.27,3.98c.36,1.13,1.24,2.01,2.37,2.37l3.98,1.27c.77.25.77,1.33,0,1.58Z"/>
      </g>
    </g>
  </g>
</svg>