<?xml version="1.0" encoding="UTF-8"?>
<svg id="Layer_2" data-name="Layer 2" xmlns="http://www.w3.org/2000/svg" viewBox="0 0 192.63 214.02">
  <defs>
    <style>
      .cls-1 {
        opacity: .13;
      }

      .cls-2 {
        fill: #5d7a72;
      }

      .cls-2, .cls-3, .cls-4, .cls-5, .cls-6, .cls-7, .cls-8, .cls-9 {
        stroke-width: 0px;
      }

      .cls-3 {
        fill: #260b05;
      }

      .cls-4 {
        fill: #dc9f8e;
      }

      .cls-10 {
        opacity: .33;
      }

      .cls-11 {
        opacity: .34;
      }

      .cls-5 {
        fill: #fff;
      }

      .cls-6 {
        fill: #ba684e;
      }

      .cls-7 {
        fill: #b4d2c4;
      }

      .cls-8 {
        fill: #8b4034;
      }

      .cls-9 {
        fill: #ffe9d9;
      }
    </style>
  </defs>
  <g id="OBJECTS">
    <g>
      <path class="cls-5" d="m5.8,214.02c-3.2,0-5.8-2.6-5.8-5.8v-100.39c0-12.96,2.02-25.6,6.01-37.59,5.87-17.7,15.89-33.47,28.97-45.58C52.17,8.76,73.95,0,96.31,0c12.24,0,24.15,2.53,35.42,7.53,3.34,1.47,6.63,3.17,9.76,5.04,8.53,5.07,16.33,11.56,23.17,19.27,18.04,20.34,27.97,47.33,27.97,76v100.39c0,3.2-2.6,5.8-5.8,5.8H5.8Z"/>
      <g>
        <path class="cls-7" d="m186.37,107.36v100.39H5.35v-52.21l.88-2.53-.88-7.34v-7.04l1.13-7.28-1.13-2.9v-21.09c0-12.58,2.01-24.63,5.71-35.75,5.64-17,15.19-31.84,27.41-43.15,15.61-14.45,35.6-23.13,57.38-23.13,11.66,0,22.82,2.48,33.07,7.03,1.57.69,1.56,4.03,3.08,4.82s4.58-.98,6.06-.1c8.06,4.8,15.41,10.94,21.8,18.14,16.38,18.47,26.51,43.97,26.51,72.15Z"/>
        <g>
          <g>
            <path class="cls-9" d="m134.68,35.03c-.03-.11-.07-.23-.1-.34-.38-1.28-.63-2.58-.74-3.89-.44-4.95,1-9.89,4.23-13.73-2.95-1.76-6-3.34-9.14-4.72-2.48,2.97-5.81,5.05-9.52,6.02-1.73.46-3.54.7-5.39.65-3.44-.06-6.97.72-10.32,2.46-8.59,4.45-13.21,14.4-11.09,23.89.71,3.2,2.05,6.04,3.85,8.45h0c3.41,4.57,8.44,7.58,13.93,8.48.49.09.99.15,1.5.21.95.07,1.91.1,2.88.05.25,0,.48-.02.73-.05h0c2.29-.15,4.59-.71,6.84-1.66,9.76-4.15,15.09-15.13,12.42-25.42-.02-.14-.06-.26-.1-.41Z"/>
            <g class="cls-11">
              <path class="cls-4" d="m119.6,23.76c5.15,1.66,9.49,5.61,11.48,11.11,3.42,9.44-1.4,19.84-10.78,23.23-5.5,1.99-11.33,1.13-15.9-1.82,3.67,1.22,7.77,1.24,11.67-.18,9.38-3.4,14.21-13.8,10.8-23.22-1.41-3.91-4.03-7.04-7.27-9.12Z"/>
            </g>
          </g>
          <g>
            <g>
              <path class="cls-9" d="m5.7,137.18c-.14.59-.25,1.18-.35,1.76v-10.51c2.28-4.48,5.39-7.39,9.3-8.69,7.67-2.55,16.23,1.88,20.77,4.83h0c.42.27.8.53,1.14.77.45.32.85.6,1.16.83.52.4.83.66.91.72l-.79.96-1.02,1.22-.29.35s-.31-.25-.82-.64c-2.81-2.09-12.33-8.51-20.02-5.93-4.74,1.59-8.09,6.4-9.99,14.33Z"/>
              <path class="cls-9" d="m49.72,179.57l-.14.54-.71,2.62s-.04,0-.06-.02c-2.24-.6-32.85-9.11-43.46-27.28v-9.59c3.37,20.27,35.9,31.19,43.01,33.34.53.16.92.27,1.14.34.13.03.2.06.22.06Z"/>
            </g>
            <g>
              <polygon class="cls-6" points="135.48 102.5 160.86 55.08 146.64 47.83 125.16 95.24 135.48 102.5"/>
              <rect class="cls-3" x="116.37" y="78.58" width="54.4" height=".55" transform="translate(6.85 169.07) rotate(-62.2)"/>
              <path class="cls-3" d="m160.86,55.08s-5.67,1.77-8.93.09c-3.25-1.67-5.3-7.35-5.3-7.35l14.23,7.25Z"/>
            </g>
            <g>
              <g>
                <path class="cls-9" d="m148.97,115.55c-3.51,2.48-7.7,3.68-11.82,4.73-30.77,7.81-64.09,8.81-93.29-3.96-2.05-.9-4.12-1.89-5.78-3.44-1.68-1.55-2.93-3.63-2.88-5.96,0,0,.4-1.37,1.58-3.08,1.68-2.46,4.92-5.64,10.74-6.55,0,0,.17-.3.5-.84.67-1.11,2.08-3.26,4.12-5.63,4.45-5.15,11.92-11.42,21.74-10.96.62.03,1.2-.02,1.76-.14,1.41-.27,2.67-.93,3.8-1.91,3.63-3.02,5.97-8.87,7.16-13.74.93-3.75.93-7.96-.98-11.27,5.77.36,11.4.74,16.97,2.34,5.58,1.61,10.96,4.56,14.57,9.28,2.88,3.74,4.5,8.45,4.98,13.26l.11,1.56c0,.17.01.35.01.51h.01v.17c3.24.21,6.51,1.26,8.86,3.62,1.94,1.94,3.31,4.49,3.92,7.22.11.45.2.92.24,1.38.03.12.04.24.06.36,1.25-.45,2.45.14,3.74.42,3.28.75,6.53,1.92,9.31,3.9.79.56,1.52,1.19,2.21,1.88,1.75,1.74,3.14,3.89,3.83,6.32,1.23,4.25-1.99,8.03-5.49,10.52Z"/>
                <g class="cls-10">
                  <path class="cls-6" d="m148.97,115.55c-3.51,2.48-7.7,3.68-11.82,4.73-30.77,7.81-64.09,8.81-93.29-3.96-2.05-.9-4.12-1.89-5.78-3.44-1.68-1.55-2.93-3.63-2.88-5.96,0,0,.4-1.37,1.58-3.08,1.68-2.46,4.92-5.64,10.74-6.55,0,0,.17-.3.5-.84.67-1.11,2.08-3.26,4.12-5.63,4.45-5.15,11.92-11.42,21.74-10.96.62.03,1.2-.02,1.76-.14,1.41-.27,2.67-.93,3.8-1.91,3.63-3.02,5.97-8.87,7.16-13.74.93-3.75.93-7.96-.98-11.27,5.77.36,11.4.74,16.97,2.34,5.58,1.61,10.96,4.56,14.57,9.28,2.88,3.74,4.5,8.45,4.98,13.26l.11,1.56c0,.17.01.35.01.51h.01v.17c3.24.21,6.51,1.26,8.86,3.62,1.94,1.94,3.31,4.49,3.92,7.22.11.45.2.92.24,1.38.03.12.04.24.06.36,1.25-.45,2.45.14,3.74.42,3.28.75,6.53,1.92,9.31,3.9.79.56,1.52,1.19,2.21,1.88,1.75,1.74,3.14,3.89,3.83,6.32,1.23,4.25-1.99,8.03-5.49,10.52Z"/>
                </g>
                <g class="cls-1">
                  <path class="cls-6" d="m135.31,92.15c-9.27,2.96-17.31,10.24-26.81,12.93-3.7,1.05-7.56,1.37-11.4,1.43-9.57.15-19.15-1.29-28.29-4.28-6.87-2.24-13.64-5.37-20.8-5.76.67-1.11,2.08-3.26,4.12-5.63,9.41,6.23,19.91,10.58,30.94,12.24,11.8,1.77,24.14.3,34.98-4.89,3.8-1.82,7.42-4.07,11.29-5.7,2.05-.87,3.86-1.46,5.72-1.7.11.45.2.92.24,1.38Z"/>
                </g>
                <g class="cls-1">
                  <path class="cls-6" d="m122.14,77.69c-.72.11-1.42.26-2.11.44-3.6.95-6.96,2.69-10.38,4.14-3.44,1.46-7.1,2.63-10.8,2.34-5.24-.41-9.84-3.66-14.79-5.48-1.51-.56-3.06-.98-4.62-1.31-1.13.98-2.4,1.64-3.8,1.91,1.18.27,2.32.65,3.46,1.1,1.82.72,3.54,1.67,5.36,2.39,2.22.87,4.56,1.38,6.88,1.83,4.42.87,8.96,1.5,13.4.71,4.07-.72,7.86-2.64,11.73-4.19,1.88-.75,3.82-1.41,5.79-1.8h.01l-.14-2.07Z"/>
                </g>
              </g>
              <g class="cls-1">
                <path class="cls-6" d="m148.97,115.55c-3.51,2.48-7.7,3.68-11.82,4.73-30.77,7.81-64.09,8.81-93.29-3.96-2.05-.9-4.12-1.89-5.78-3.44-1.68-1.55-2.93-3.63-2.88-5.96,0,0,.4-1.37,1.58-3.08,9.05,8.33,22.02,10.81,34.19,11.49,17.53.96,35.34-.95,51.91-7.03,9.19-3.38,18.22-8.08,27.75-9.59,1.75,1.74,3.14,3.89,3.83,6.32,1.23,4.25-1.99,8.03-5.49,10.52Z"/>
              </g>
            </g>
            <path class="cls-8" d="m153.56,111.66l-2.51,29.09c-.23,2.71-2.5,4.78-5.21,4.78h-3.56l-1.66,9.48-4.51,25.86-4.15,23.79H52.73l-3.69-28.69-2.14-16.68-1.69-13.21-2.55-.1c-2.68-.1-4.85-2.21-5.03-4.88l-2.03-29.96,117.95.5Z"/>
            <polygon class="cls-3" points="136.1 180.88 131.95 204.67 52.73 204.67 49.04 175.98 136.1 180.88"/>
            <path class="cls-6" d="m153.56,111.66l-2.51,29.09c-.23,2.71-2.5,4.78-5.21,4.78h-3.56l-1.66,9.48-93.71,4.28-1.69-13.21-2.55-.1c-2.68-.1-4.85-2.21-5.03-4.88l-2.03-29.96,117.95.5Z"/>
            <g>
              <path class="cls-9" d="m155.07,102.68c-.21-.23-.52-.37-.81-.35-.29,0-.59,0-.89,0h0c-4.53.07-10.01.14-16.1.22-1.91.02-3.9.05-5.93.08-.2,0-.41,0-.62,0h0c-5.21.07-10.73.14-16.41.21h0c-3.91.04-7.87.09-11.85.14h0c-6.13.08-12.28.15-18.23.21-4,.05-7.92.09-11.67.13h-.02c-17.02.17-30.86.27-35.51.19-.79,0-1.31-.03-1.55-.05-.15-.05-.33-.06-.5-.02-.54.11-.92.6-.88,1.14l1.35,19.97h0s.29,4.21.29,4.21l.84,12.4c.21,3.25,2.82,5.78,6.07,5.91l1.62.06,4.11,32.02.45,3.54,2.84,22.1c.07.54.53.96,1.08.96h79.22c.53,0,.99-.39,1.07-.91l10.17-58.23h2.64c3.26,0,6.02-2.53,6.3-5.78l3.22-37.33c.03-.31-.08-.61-.29-.83Zm-101.21,3.01c7.33-.05,16.78-.14,28.21-.26h.02c3.99-.05,8.23-.1,12.7-.15,4.53-.06,9.07-.11,13.51-.16h.02c8.37-.11,16.39-.2,23.31-.3,10.52-.14,18.52-.25,21.44-.29l-.61,7.13-.08.79h0s-.15,1.88-.15,1.88l-.19,2.19-2.08,24.15c-.18,2.12-1.99,3.78-4.13,3.78h-3.56c-.53,0-.99.39-1.08.91l-1.69,9.72-4.5,25.76-3.97,22.76H53.69l-3.54-27.55-2.16-16.78-1.7-13.29c-.07-.53-.51-.94-1.04-.96l-2.55-.1c-2.13-.08-3.84-1.74-3.97-3.87l-.89-13.19-.12-1.67-.66-9.67-.15-2.19-.2-2.96v-.2s-.39-5.49-.39-5.49c.67.04,1.55.06,2.71.07,2.85.04,7.44,0,14.82-.05Z"/>
              <path class="cls-9" d="m70.33,204.76l-4.06-52.99c-.18-2.38-2.16-4.14-4.57-4.02-1.18.06-2.26.58-3.05,1.47-.78.89-1.17,2.02-1.08,3.2l3.78,51.9-2.18.16-3.78-51.9c-.13-1.77.45-3.48,1.62-4.81,1.17-1.33,2.8-2.11,4.57-2.21,3.56-.2,6.59,2.47,6.86,6.04l4.06,52.99-2.18.17Z"/>
              <path class="cls-9" d="m116.57,204.76l-2.18-.17,4.06-52.99c.27-3.57,3.26-6.24,6.86-6.04,1.77.09,3.4.87,4.57,2.2,1.18,1.33,1.75,3.04,1.62,4.81l-3.78,51.9-2.18-.16,3.78-51.9c.09-1.18-.3-2.32-1.08-3.21-.78-.89-1.86-1.41-3.05-1.47-2.42-.12-4.39,1.65-4.57,4.02l-4.06,52.99Z"/>
              <path class="cls-9" d="m78.27,204.11l-2.18-.04.91-52.03c.03-1.78.76-3.42,2.05-4.64,1.29-1.22,2.98-1.86,4.75-1.78,3.58.14,6.34,3.05,6.29,6.63l-1.12,51.61-2.18-.05,1.12-51.6c.03-2.38-1.81-4.32-4.19-4.41-1.18-.04-2.31.38-3.17,1.19-.86.81-1.34,1.91-1.37,3.09l-.91,52.03Z"/>
              <path class="cls-9" d="m98.35,204.11l-2.18-.04.91-52.03c.03-1.78.76-3.42,2.05-4.64,1.29-1.22,2.97-1.86,4.75-1.78,3.58.14,6.34,3.05,6.29,6.63l-1.12,51.61-2.18-.05,1.12-51.6c.03-2.38-1.81-4.32-4.19-4.41-1.18-.04-2.31.38-3.17,1.19-.86.81-1.34,1.91-1.37,3.09l-.91,52.03Z"/>
              <rect class="cls-9" x="36" y="114.32" width="117.15" height="2.18"/>
            </g>
          </g>
        </g>
        <g>
          <g>
            <path class="cls-2" d="m35.12,57.39c-.41,4.04.33,9.01.27,13.3,0,.5-.03.99-.07,1.47,0,.16-.02.33-.03.49,2.77-2.01,6.45-2.1,9.86-2.38,4.25-.35,8.61-1.21,12.33-3.22.21-.1.42-.22.64-.34.88-.51,1.71-1.1,2.5-1.75,2.11-1.77,3.76-4.01,4.96-6.5h0c.07-.14.13-.28.2-.42.89-1.93,1.51-4,1.87-6.1.19-1.11.32-2.23.38-3.34,0-.15,0-.29.02-.44.16-3.65-.28-7.33-.99-10.92-.02-.11-.04-.2-.06-.31-.2,0-.41-.02-.61-.03-3.85-.18-7.8-.38-11.6.08-.15.02-.3.03-.45.05-2.46.34-4.84.96-7.07,2.05-.59.29-1.16.61-1.7.95-.15.08-.28.18-.42.26-4.02,2.64-7.02,6.7-8.69,11.26-.09.25-.18.5-.26.75-.55,1.64-.91,3.35-1.09,5.07Z"/>
            <g>
              <path class="cls-3" d="m35.39,70.69c0,.5-.03.99-.07,1.47,1.48-2.66,3.06-5.24,4.77-7.74.09-.14.18-.28.28-.41,1.99-2.91,4.13-5.72,6.41-8.41.12-.14.22-.26.34-.39,2.06-2.41,4.23-4.72,6.5-6.93.15-.15.3-.29.45-.45,4.03-3.87,8.37-7.41,12.99-10.59-.02-.11-.04-.2-.06-.31-.2,0-.41-.02-.61-.03-4.48,3.1-8.69,6.54-12.59,10.28-.17.15-.34.31-.49.46-2.22,2.15-4.35,4.4-6.37,6.74-.13.16-.26.31-.4.47h0c-2.41,2.83-4.67,5.78-6.77,8.85-.12.16-.23.32-.33.48h0c-1.43,2.12-2.77,4.29-4.04,6.5Z"/>
              <path class="cls-3" d="m54.34,37.04l-1.05,10.61-.06.62h.37s14.41.33,14.41.33c0-.15,0-.29.02-.44l-13.98-.32h-.34s.06-.65.06-.65l1-10.2c-.15.02-.3.03-.45.05Z"/>
              <path class="cls-3" d="m45.15,40.3l1.38,14.55h0s.07.72.07.72l.18.03,18.8,2.85h0c.07-.14.13-.28.2-.42l-18.66-2.82-.11-.02-.08-.81-1.36-14.34c-.15.08-.28.18-.42.26Z"/>
              <path class="cls-3" d="m36.21,52.31l3.22,11.87h0s.04.14.04.14l.14.02.48.08,17.4,2.63c.21-.1.42-.22.64-.34l-17.76-2.69-.54-.08-.06-.23-3.3-12.14c-.09.25-.18.5-.26.75Z"/>
            </g>
          </g>
          <g>
            <path class="cls-2" d="m169.51,182c-3.3,2.37-7.99,4.19-11.68,6.37-.43.26-.85.52-1.24.79-.14.09-.27.18-.41.27.37-3.41-1.38-6.64-2.84-9.74-1.81-3.87-3.23-8.07-3.33-12.3-.02-.23-.02-.48-.02-.73,0-1.01.1-2.03.28-3.04.48-2.71,1.61-5.26,3.18-7.53h0c.08-.13.17-.26.26-.38,1.24-1.73,2.72-3.3,4.36-4.65.87-.72,1.77-1.38,2.71-1.99.13-.07.25-.15.37-.23,3.09-1.95,6.49-3.4,9.97-4.57.1-.04.2-.07.3-.1.1.17.22.34.33.52,2.07,3.25,4.21,6.58,5.69,10.1.06.14.12.28.18.41.93,2.3,1.58,4.68,1.73,7.15.04.66.05,1.31.02,1.95,0,.17-.01.33-.02.49-.29,4.8-2.32,9.42-5.45,13.13-.17.21-.34.4-.53.6-1.15,1.29-2.46,2.46-3.86,3.47Z"/>
            <g>
              <path class="cls-3" d="m157.83,188.38c-.43.26-.85.52-1.24.79,1.57-2.6,3.03-5.26,4.35-7.98.08-.15.15-.29.21-.44,1.54-3.18,2.91-6.43,4.11-9.74.06-.17.12-.33.17-.49,1.07-2.98,2-6.02,2.78-9.09.05-.2.11-.4.16-.61,1.35-5.42,2.27-10.95,2.74-16.54.1-.04.2-.07.3-.1.1.17.22.34.33.52-.46,5.43-1.36,10.79-2.66,16.04-.05.22-.1.45-.16.66-.76,2.99-1.66,5.96-2.68,8.87-.07.19-.14.38-.21.58h0c-1.25,3.5-2.69,6.93-4.31,10.27-.08.18-.16.36-.25.53h0c-1.12,2.29-2.33,4.54-3.63,6.74Z"/>
              <path class="cls-3" d="m177.62,155.21l-8.69,6.18-.51.36-.2-.32-7.44-12.35c.13-.07.25-.15.37-.23l7.23,11.97.17.29.53-.38,8.35-5.94c.06.14.12.28.18.41Z"/>
              <path class="cls-3" d="m179.35,164.8l-13.31,6.03h0s-.65.3-.65.3l-.11-.14-11.82-14.9h0c.08-.13.17-.26.26-.38l11.73,14.79.07.08.74-.33,13.12-5.95c0,.17-.01.33-.02.49Z"/>
              <path class="cls-3" d="m173.37,178.53l-11.9,3.11h0s-.13.04-.13.04l-.09-.11-.3-.38-10.93-13.79c-.02-.23-.02-.48-.02-.73l11.16,14.07.34.43.23-.06,12.17-3.17c-.17.21-.34.4-.53.6Z"/>
            </g>
          </g>
        </g>
        <g>
          <path class="cls-9" d="m29.93,93.89l-3.85,1.23c-1.09.35-1.94,1.2-2.29,2.29l-1.23,3.85c-.24.74-1.29.74-1.52,0l-1.23-3.85c-.35-1.09-1.2-1.94-2.29-2.29l-3.85-1.23c-.74-.24-.74-1.29,0-1.52l3.85-1.23c1.09-.35,1.94-1.2,2.29-2.29l1.23-3.85c.24-.74,1.29-.74,1.52,0l1.23,3.85c.35,1.09,1.2,1.94,2.29,2.29l3.85,1.23c.74.24.74,1.29,0,1.52Z"/>
          <path class="cls-9" d="m87.37,23.95l-3.85,1.23c-1.09.35-1.94,1.2-2.29,2.29l-1.23,3.85c-.24.74-1.29.74-1.52,0l-1.23-3.85c-.35-1.09-1.2-1.94-2.29-2.29l-3.85-1.23c-.74-.24-.74-1.29,0-1.52l3.85-1.23c1.09-.35,1.94-1.2,2.29-2.29l1.23-3.85c.24-.74,1.29-.74,1.52,0l1.23,3.85c.35,1.09,1.2,1.94,2.29,2.29l3.85,1.23c.74.24.74,1.29,0,1.52Z"/>
          <path class="cls-9" d="m179.69,106.4l-3.85,1.23c-1.09.35-1.94,1.2-2.29,2.29l-1.23,3.85c-.24.74-1.29.74-1.52,0l-1.23-3.85c-.35-1.09-1.2-1.94-2.29-2.29l-3.85-1.23c-.74-.24-.74-1.29,0-1.52l3.85-1.23c1.09-.35,1.94-1.2,2.29-2.29l1.23-3.85c.24-.74,1.29-.74,1.52,0l1.23,3.85c.35,1.09,1.2,1.94,2.29,2.29l3.85,1.23c.74.24.74,1.29,0,1.52Z"/>
          <path class="cls-9" d="m33.88,190.66l-3.85,1.23c-1.09.35-1.94,1.2-2.29,2.29l-1.23,3.85c-.24.74-1.29.74-1.52,0l-1.23-3.85c-.35-1.09-1.2-1.94-2.29-2.29l-3.85-1.23c-.74-.24-.74-1.29,0-1.52l3.85-1.23c1.09-.35,1.94-1.2,2.29-2.29l1.23-3.85c.24-.74,1.29-.74,1.52,0l1.23,3.85c.35,1.09,1.2,1.94,2.29,2.29l3.85,1.23c.74.24.74,1.29,0,1.52Z"/>
        </g>
      </g>
    </g>
  </g>
</svg>