<?xml version="1.0" encoding="UTF-8"?>
<svg id="Layer_2" data-name="Layer 2" xmlns="http://www.w3.org/2000/svg" viewBox="0 0 296 282.3">
  <defs>
    <style>
      .cls-1 {
        fill: #9e9e41;
      }

      .cls-1, .cls-2, .cls-3, .cls-4 {
        stroke: #9e9e41;
      }

      .cls-1, .cls-2, .cls-3, .cls-4, .cls-5 {
        stroke-miterlimit: 10;
        stroke-width: 7px;
      }

      .cls-2 {
        fill: #f5f5e6;
      }

      .cls-3 {
        fill: #fff;
      }

      .cls-4, .cls-5 {
        fill: none;
      }

      .cls-5 {
        stroke: #f5f5e6;
      }
    </style>
  </defs>
  <g id="Layer_1-2" data-name="Layer 1">
    <rect class="cls-2" x="3.5" y="3.5" width="289" height="275.3"/>
    <path class="cls-1" d="m226.18,118.54c0,.89-.03,1.77-.09,2.65-.13,1.84-.39,3.65-.78,5.43-5.7,13.25-38.73,23.42-78.63,23.42s-72.93-10.17-78.63-23.42c-.39-1.78-.65-3.59-.78-5.43-.06-.88-.09-1.76-.09-2.65,0-30.1,35.59-54.5,79.5-54.5s79.5,24.4,79.5,54.5Z"/>
    <path class="cls-4" d="m146.95,166.7c-43.57,0-79.64-10.17-85.86-23.42"/>
    <path class="cls-4" d="m232.81,143.28c-6.22,13.25-42.29,23.42-85.86,23.42"/>
    <path class="cls-4" d="m108.55,176.04c-19.91-3.13-35.49-8.61-43.13-15.29"/>
    <path class="cls-3" d="m196.86,173.91c-14.1,3.13-31.27,4.97-49.79,4.97"/>
    <path class="cls-4" d="m145.56,191.99c-16.98,0-32.83-1.55-46.21-4.22"/>
    <path class="cls-4" d="m221.1,178.05c-14.92,8.32-43.16,13.94-75.54,13.94"/>
    <path class="cls-3" d="m124.29,204.29c-15.38-1.32-29.07-3.94-39.81-7.47"/>
    <path class="cls-3" d="m181.81,202.94c-7.35,1.02-15.23,1.73-23.47,2.07"/>
    <path class="cls-4" d="m108.55,218.1c-32.18-3.66-55.93-11.66-61.23-21.28"/>
    <path class="cls-3" d="m227.57,209.9c-11.45,3.87-26.7,6.89-44.22,8.64"/>
    <path class="cls-3" d="m238.34,183.22c-2.7,4.9-10.18,9.37-21.11,13.07"/>
    <path class="cls-4" d="m145.07,238.45c-26.49,0-50.69-2.58-69.14-6.84"/>
    <path class="cls-4" d="m207.13,233.11c-17.37,3.36-38.83,5.34-62.05,5.34"/>
    <path class="cls-5" d="m140.68,75.54s-38.31-1-59.65,31.5"/>
    <path class="cls-5" d="m211.01,108.99s8.39,5.41.06,15.26"/>
    <path class="cls-4" d="m223.3,29.43s-10.34,1.75-11.26,14.39c-.92,12.64-9.94,17.88-9.94,17.88"/>
    <path class="cls-4" d="m212.15,24.16s-10.34,1.75-11.26,14.39c-.92,12.64-9.94,17.88-9.94,17.88"/>
    <path class="cls-4" d="m232.78,38.28s-10.34,1.75-11.26,14.39c-.92,12.64-9.94,17.88-9.94,17.88"/>
  </g>
</svg>